<svg width="967" height="981" viewBox="0 0 967 981" fill="none" xmlns="http://www.w3.org/2000/svg">
<path d="M446.885 0.793848C427.285 2.39385 412.618 5.06051 373.552 14.3938C323.018 26.3938 294.885 36.1272 260.485 53.3272C202.885 82.2605 145.552 127.461 110.218 171.861C84.0851 204.794 60.8851 241.194 41.1518 280.794L29.5518 304.127L34.4851 305.061C37.2851 305.594 50.0851 305.994 63.0184 305.994L86.3518 306.127L92.2184 295.727C145.152 202.127 180.752 162.127 248.618 119.994C297.152 89.7272 365.152 64.9272 416.885 58.5272C441.018 55.5939 529.552 55.7272 551.418 58.7939C615.152 67.5939 685.685 95.1939 740.218 132.527C791.018 167.461 829.152 209.461 860.885 265.594C874.618 289.727 881.418 298.794 887.685 300.794C893.818 302.927 910.352 301.994 923.952 298.794C933.552 296.527 933.818 296.394 932.885 293.061C931.418 287.194 915.685 255.861 905.952 239.461C853.018 150.661 793.418 96.1272 700.885 51.3272C671.418 37.0605 651.285 29.0605 627.285 22.1272C604.752 15.4605 563.952 7.19385 536.218 3.46051C512.752 0.260515 468.885 -0.939485 446.885 0.793848Z" fill="white"/>
<path d="M463.285 87.8603C461.818 90.127 461.685 404.794 463.018 416.127C463.818 421.86 465.818 428.527 468.218 433.46C472.085 441.06 488.218 464.794 489.552 464.794C490.885 464.66 504.218 443.86 507.818 436.127L511.552 428.127L511.018 259.46C510.752 166.66 510.352 90.527 510.218 90.3937C509.552 89.5937 491.018 87.727 477.285 87.0603C468.085 86.527 463.952 86.7937 463.285 87.8603Z" fill="white"/>
<path d="M399.952 96.2603C394.218 97.1937 385.552 99.4603 380.618 101.06L371.552 104.127L370.618 121.46C369.418 147.46 369.552 263.194 370.885 272.66C372.218 282.394 375.152 288.394 384.352 300.527C394.352 313.994 417.952 339.594 419.018 338.527C421.018 336.394 423.152 320.794 423.818 302.127C424.352 288.527 423.818 275.86 422.218 259.46C420.352 241.46 419.685 222.794 419.552 177.46C419.418 145.194 419.285 113.194 419.152 106.394L418.885 94.127L414.618 94.2603C412.218 94.2603 405.552 95.1937 399.952 96.2603Z" fill="white"/>
<path d="M550.218 130.394C548.752 186.394 550.218 316.394 552.618 338.527C553.685 348.66 554.885 357.194 555.152 357.46C555.952 358.394 582.618 314.794 590.485 299.86C594.885 291.727 598.485 282.66 599.552 277.194C603.018 260.794 601.952 107.46 598.352 103.727C597.152 102.66 577.818 98.127 568.218 96.7937C562.752 95.9937 556.618 95.0603 554.752 94.6603L551.152 93.9937L550.218 130.394Z" fill="white"/>
<path d="M641.152 119.06C639.819 121.194 638.619 238.26 639.552 262.394L640.485 287.46H667.019H693.552V215.594V143.594L689.952 141.06C674.219 130.127 643.019 115.994 641.152 119.06Z" fill="white"/>
<path d="M309.552 127.594C301.152 132.127 290.885 137.86 286.885 140.527L279.552 145.46V216.794V288.127L303.685 288.527L327.818 288.794L328.618 273.86C329.818 254.394 329.818 171.994 328.618 142.394C328.085 127.194 327.285 119.46 326.352 119.46C325.552 119.46 317.952 123.194 309.552 127.594Z" fill="white"/>
<path d="M223.552 179.727C204.618 193.727 193.685 204.927 188.352 215.727L184.085 224.261L184.218 252.527C184.218 268.127 185.152 296.394 186.352 315.194C187.952 340.527 188.218 356.127 187.418 374.794C185.418 422.927 185.552 424.527 190.885 434.927C195.685 444.261 208.085 461.994 209.818 462.127C211.685 462.127 225.552 441.461 231.285 430.261L236.885 419.061L237.818 374.927C238.218 350.661 239.285 322.927 240.085 313.461C242.485 282.661 241.685 168.661 239.018 168.794C238.618 168.794 231.685 173.727 223.552 179.727Z" fill="white"/>
<path d="M735.818 174.394C732.885 185.994 731.685 206.527 731.685 240.794C731.818 261.727 732.218 281.594 732.752 285.06L733.685 291.46H758.752H783.952L784.485 274.26C784.752 264.794 784.618 247.594 784.218 235.86C783.552 216.127 783.285 214.394 779.952 208.794C776.352 202.66 763.952 191.46 748.218 179.994C743.418 176.66 738.885 173.194 738.085 172.527C737.018 171.727 736.218 172.394 735.818 174.394Z" fill="white"/>
<path d="M629.552 327.327C618.885 328.394 616.352 329.727 610.485 337.727C604.885 345.461 574.485 397.861 544.219 452.127C513.419 507.327 491.685 543.461 489.285 543.461C487.952 543.461 483.819 536.794 447.019 475.594C429.152 445.994 407.419 408.527 398.619 392.261C379.285 356.661 369.419 341.594 361.952 336.394C357.419 333.061 354.485 332.261 344.619 331.327C330.885 329.994 289.819 331.327 288.752 333.061C287.552 334.927 296.219 350.794 310.752 373.327C317.952 384.394 333.152 410.394 344.619 431.061C356.085 451.727 377.285 488.927 391.685 513.727C406.085 538.527 429.552 579.194 443.819 604.127C476.885 661.594 487.819 678.794 490.352 676.661C491.419 675.861 492.219 674.661 492.219 674.127C492.219 673.594 495.285 667.461 499.019 660.661C502.752 653.727 509.685 640.927 514.485 632.127C519.285 623.327 534.752 595.727 548.885 570.794C563.019 545.861 579.419 516.127 585.552 504.794C591.685 493.461 604.619 470.661 614.219 454.127C623.952 437.594 635.285 417.861 639.552 410.127C643.819 402.394 653.019 387.061 659.952 376.127C673.819 353.994 684.885 332.261 683.685 329.327C683.152 327.994 680.352 327.461 672.485 327.461C666.752 327.461 656.619 327.194 650.085 326.927C643.552 326.661 634.352 326.794 629.552 327.327Z" fill="white"/>
<path d="M41.8185 335.06C25.0185 335.46 24.0851 335.727 22.8851 338.527C21.0185 342.66 7.55181 404.127 5.01848 419.46C0.218479 448.66 -1.38152 508.394 1.68515 544.394C5.41848 589.994 25.1518 653.727 52.7518 709.594C90.2185 785.727 135.952 840.26 204.218 890.394C226.485 906.66 272.352 931.327 306.885 945.46C366.219 969.727 435.419 982.26 500.219 980.26C593.952 977.46 674.352 951.594 750.219 899.727C774.619 883.06 793.819 866.794 824.085 837.46C863.019 799.594 903.952 739.194 926.885 685.46C933.552 669.994 944.619 639.46 943.685 639.46C943.419 639.46 932.752 637.994 920.085 636.127C907.419 634.26 896.485 633.327 895.952 633.86C895.285 634.527 890.085 645.727 884.352 658.927C853.552 729.327 826.619 769.594 779.419 815.46C748.219 845.86 714.885 868.927 670.219 890.927C630.885 910.26 579.419 926.394 535.552 932.927C512.219 936.527 470.485 936.794 446.219 933.594C401.952 927.86 343.685 912.26 309.285 896.794C277.419 882.527 233.818 857.06 216.218 842.394C196.618 825.994 158.218 785.994 142.618 765.46C108.485 720.394 76.8851 654.66 62.8851 599.46C52.8851 559.727 49.5518 531.06 49.5518 483.994C49.5518 440.794 50.8851 427.194 57.8185 400.794C66.3518 368.26 68.2185 359.594 69.0185 346.394L69.9518 334.127L64.7518 334.394C61.9518 334.527 51.5518 334.927 41.8185 335.06Z" fill="white"/>
<path d="M738.618 336.66C735.952 337.194 732.752 338.527 731.418 339.46C724.218 345.594 699.018 392.66 702.085 394.394C705.818 396.527 766.485 397.727 842.218 397.327C922.485 396.927 953.018 396.127 956.085 394.26C957.952 393.06 952.485 367.46 946.218 346.527L942.752 335.46L843.152 335.594C788.352 335.727 741.285 336.26 738.618 336.66Z" fill="white"/>
<path d="M97.0185 380.927C87.1518 401.727 84.0851 411.86 83.2851 425.594C82.7518 435.06 83.0185 439.327 84.8851 444.927C88.7518 456.927 97.6851 474.927 111.152 498.127C118.085 510.26 128.218 528.26 133.552 538.127C153.418 574.794 209.018 668.794 210.752 668.794C213.552 668.66 236.085 630.66 258.218 588.794C271.552 563.46 276.085 555.327 297.952 516.127C319.685 477.327 320.885 474.527 320.885 465.46C320.885 458.794 319.952 455.727 315.552 447.06C310.618 437.327 291.685 411.46 288.885 410.527C287.418 410.127 287.418 409.994 264.618 452.794C239.418 499.86 224.085 525.594 212.485 540.527L209.952 543.727L200.618 528.527C177.552 491.727 168.085 475.327 130.885 408.127C119.952 388.26 106.352 367.46 104.352 367.46C103.818 367.46 100.485 373.46 97.0185 380.927Z" fill="white"/>
<path d="M677.419 433.994C670.885 436.127 668.219 438.26 662.752 446.394C653.952 459.327 639.152 491.994 641.552 493.46C642.219 493.86 705.019 494.127 781.152 494.127C913.285 494.127 960.485 494.927 951.552 496.927C949.419 497.46 945.152 497.86 942.219 497.994C939.285 498.127 937.552 498.66 938.352 499.194C941.152 500.927 962.619 499.46 963.419 497.46C964.885 493.327 967.152 450.26 966.352 441.727L965.285 432.794L823.152 432.927C744.885 432.927 679.285 433.46 677.419 433.994Z" fill="white"/>
<path d="M640.485 533.327C638.885 535.727 639.685 598.527 641.552 621.461C642.752 636.394 643.419 674.927 643.419 751.061C643.552 828.794 644.085 859.861 645.152 860.927C647.152 862.927 669.285 852.261 678.619 844.927C691.019 835.061 689.952 849.061 689.819 692.794C689.685 616.927 689.019 551.861 688.352 548.394C686.885 540.394 684.219 537.461 676.352 534.927C668.619 532.527 641.819 531.327 640.485 533.327Z" fill="white"/>
<path d="M737.285 533.727C736.085 533.994 733.819 537.327 732.085 541.194C728.352 549.994 727.419 564.394 729.685 580.127C730.885 588.794 731.552 622.26 732.085 701.327L732.885 810.527L743.819 801.86C764.619 785.46 777.952 771.46 782.485 761.46C784.619 756.527 784.752 751.194 784.352 689.86C784.085 653.46 784.352 617.46 784.885 609.727L785.819 595.727L796.085 594.26C815.152 591.46 852.752 590.127 903.819 590.527C931.819 590.66 955.152 590.394 955.552 589.86C956.752 588.66 962.885 535.327 962.085 533.86C961.419 532.794 741.419 532.66 737.285 533.727Z" fill="white"/>
<path d="M317.952 559.727C300.085 592.394 285.552 624.661 281.418 640.927C279.952 646.661 279.552 666.661 279.552 741.727V835.327L284.885 840.794C293.418 849.727 325.418 868.127 327.818 865.594C329.418 863.994 329.018 551.461 327.418 547.727C326.352 545.061 325.285 546.261 317.952 559.727Z" fill="white"/>
<path d="M368.619 551.727C368.085 552.66 367.419 626.527 367.285 715.86L367.019 878.394L376.619 882.794C386.352 887.194 419.152 899.46 421.419 899.46C423.819 899.46 424.352 872.527 423.952 761.46L423.552 648.127L419.685 638.794C415.152 627.86 385.819 574.66 376.352 560.127C371.819 553.194 369.419 550.66 368.619 551.727Z" fill="white"/>
<path d="M581.552 629.194C573.819 635.994 565.285 644.927 562.619 648.927C552.619 663.46 553.152 655.46 553.019 778.394C552.885 838.927 553.419 889.06 553.952 889.594C554.885 890.66 597.152 887.06 598.085 885.994C600.619 883.327 601.552 846.127 601.552 755.594C601.552 669.46 601.152 650.394 599.419 636.527C598.219 627.594 596.885 619.327 596.352 618.527C595.819 617.46 590.752 621.06 581.552 629.194Z" fill="white"/>
<path d="M187.819 689.86C187.419 691.86 186.085 703.594 184.752 715.994C182.885 734.794 182.752 740.66 184.085 751.194C185.819 765.327 186.085 765.86 193.152 774.394C203.152 786.394 236.885 812.127 238.219 808.527C241.285 799.46 243.152 694.127 240.219 694.127C239.419 694.127 233.952 697.994 228.219 702.66C212.885 715.194 212.752 715.327 208.219 709.86C206.085 707.46 201.152 701.194 197.285 695.86C193.419 690.527 189.819 686.127 189.419 686.127C188.885 686.127 188.219 687.727 187.819 689.86Z" fill="white"/>
<path d="M463.685 704.261C463.285 707.727 462.885 750.927 462.885 800.394C462.885 895.061 462.885 895.861 468.885 900.794C470.619 902.261 475.685 902.927 487.819 903.327C496.885 903.461 505.819 903.327 507.552 902.927L510.885 902.127V810.927V719.727L499.419 720.527L487.952 721.194L476.352 709.594L464.619 697.861L463.685 704.261Z" fill="white"/>
</svg>
