<?xml version="1.0" standalone="no"?>
<!DOCTYPE svg PUBLIC "-//W3C//DTD SVG 20010904//EN"
 "http://www.w3.org/TR/2001/REC-SVG-20010904/DTD/svg10.dtd">
<svg version="1.0" xmlns="http://www.w3.org/2000/svg"
 width="1256.000000pt" height="1286.000000pt" viewBox="0 0 1256.000000 1286.000000"
 preserveAspectRatio="xMidYMid meet">
<metadata>
Created by potrace 1.15, written by Peter Selinger 2001-2017
</metadata>
<g transform="translate(0.000000,1286.000000) scale(0.100000,-0.100000)"
fill="#ffffff" stroke="none">
<path d="M6170 11760 c-147 -12 -257 -32 -550 -102 -379 -90 -590 -163 -848
-292 -432 -217 -862 -556 -1127 -889 -196 -247 -370 -520 -518 -817 l-87 -175
37 -7 c21 -4 117 -7 214 -7 l175 -1 44 78 c397 702 664 1002 1173 1318 364
227 874 413 1262 461 181 22 845 21 1009 -2 478 -66 1007 -273 1416 -553 381
-262 667 -577 905 -998 103 -181 154 -249 201 -264 46 -16 170 -9 272 15 72
17 74 18 67 43 -11 44 -129 279 -202 402 -397 666 -844 1075 -1538 1411 -221
107 -372 167 -552 219 -169 50 -475 112 -683 140 -176 24 -505 33 -670 20z"/>
<path d="M6293 11107 c-11 -17 -12 -2377 -2 -2462 6 -43 21 -93 39 -130 29
-57 150 -235 160 -235 10 1 110 157 137 215 l28 60 -4 1265 c-2 696 -5 1267
-6 1268 -5 6 -144 20 -247 25 -69 4 -100 2 -105 -6z"/>
<path d="M5818 11044 c-43 -7 -108 -24 -145 -36 l-68 -23 -7 -130 c-9 -195 -8
-1063 2 -1134 10 -73 32 -118 101 -209 75 -101 252 -293 260 -285 15 16 31
133 36 273 4 102 0 197 -12 320 -14 135 -19 275 -20 615 -1 242 -2 482 -3 533
l-2 92 -32 -1 c-18 0 -68 -7 -110 -15z"/>
<path d="M6945 10788 c-11 -420 0 -1395 18 -1561 8 -76 17 -140 19 -142 6 -7
206 320 265 432 33 61 60 129 68 170 26 123 18 1273 -9 1301 -9 8 -154 42
-226 52 -41 6 -87 13 -101 16 l-27 5 -7 -273z"/>
<path d="M7627 10873 c-10 -16 -19 -894 -12 -1075 l7 -188 199 0 199 0 0 539
0 540 -27 19 c-118 82 -352 188 -366 165z"/>
<path d="M5140 10809 c-63 -34 -140 -77 -170 -97 l-55 -37 0 -535 0 -535 181
-3 181 -2 6 112 c9 146 9 764 0 986 -4 114 -10 172 -17 172 -6 0 -63 -28 -126
-61z"/>
<path d="M4495 10418 c-142 -105 -224 -189 -264 -270 l-32 -64 1 -212 c0 -117
7 -329 16 -470 12 -190 14 -307 8 -447 -15 -361 -14 -373 26 -451 36 -70 129
-203 142 -204 14 0 118 155 161 239 l42 84 7 331 c3 182 11 390 17 461 18 231
12 1086 -8 1085 -3 0 -55 -37 -116 -82z"/>
<path d="M8337 10458 c-22 -87 -31 -241 -31 -498 1 -157 4 -306 8 -332 l7 -48
188 0 189 0 4 129 c2 71 1 200 -2 288 -5 148 -7 161 -32 203 -27 46 -120 130
-238 216 -36 25 -70 51 -76 56 -8 6 -14 1 -17 -14z"/>
<path d="M7540 9311 c-80 -8 -99 -18 -143 -78 -42 -58 -270 -451 -497 -858
-231 -414 -394 -685 -412 -685 -10 0 -41 50 -317 509 -134 222 -297 503 -363
625 -145 267 -219 380 -275 419 -34 25 -56 31 -130 38 -103 10 -411 0 -419
-13 -9 -14 56 -133 165 -302 54 -83 168 -278 254 -433 86 -155 245 -434 353
-620 108 -186 284 -491 391 -678 248 -431 330 -560 349 -544 8 6 14 15 14 19
0 4 23 50 51 101 28 52 80 148 116 214 36 66 152 273 258 460 106 187 229 410
275 495 46 85 143 256 215 380 73 124 158 272 190 330 32 58 101 173 153 255
104 166 187 329 178 351 -4 10 -25 14 -84 14 -43 0 -119 2 -168 4 -49 2 -118
1 -154 -3z"/>
<path d="M3132 9253 c-126 -3 -133 -5 -142 -26 -14 -31 -115 -492 -134 -607
-36 -219 -48 -667 -25 -937 28 -342 176 -820 383 -1239 281 -571 624 -980
1136 -1356 167 -122 511 -307 770 -413 445 -182 964 -276 1450 -261 703 21
1306 215 1875 604 183 125 327 247 554 467 292 284 599 737 771 1140 50 116
133 345 126 345 -2 0 -82 11 -177 25 -95 14 -177 21 -181 17 -5 -5 -44 -89
-87 -188 -231 -528 -433 -830 -787 -1174 -234 -228 -484 -401 -819 -566 -295
-145 -681 -266 -1010 -315 -175 -27 -488 -29 -670 -5 -332 43 -769 160 -1027
276 -239 107 -566 298 -698 408 -147 123 -435 423 -552 577 -256 338 -493 831
-598 1245 -75 298 -100 513 -100 866 0 324 10 426 62 624 64 244 78 309 84
408 l7 92 -39 -2 c-21 -1 -99 -4 -172 -5z"/>
<path d="M8358 9241 c-20 -4 -44 -14 -54 -21 -54 -46 -243 -399 -220 -412 28
-16 483 -25 1051 -22 602 3 831 9 854 23 14 9 -27 201 -74 358 l-26 83 -747
-1 c-411 -1 -764 -5 -784 -8z"/>
<path d="M3546 8909 c-74 -156 -97 -232 -103 -335 -4 -71 -2 -103 12 -145 29
-90 96 -225 197 -399 52 -91 128 -226 168 -300 149 -275 566 -980 579 -980 21
1 190 286 356 600 100 190 134 251 298 545 163 291 172 312 172 380 0 50 -7
73 -40 138 -37 73 -179 267 -200 274 -11 3 -11 4 -182 -317 -189 -353 -304
-546 -391 -658 l-19 -24 -70 114 c-173 276 -244 399 -523 903 -82 149 -184
305 -199 305 -4 0 -29 -45 -55 -101z"/>
<path d="M7899 8511 c-49 -16 -69 -32 -110 -93 -66 -97 -177 -342 -159 -353 5
-3 476 -5 1047 -5 991 0 1345 -6 1278 -21 -16 -4 -48 -7 -70 -8 -22 -1 -35 -5
-29 -9 21 -13 182 -2 188 13 11 31 28 354 22 418 l-8 67 -1066 -1 c-587 0
-1079 -4 -1093 -8z"/>
<path d="M7622 7766 c-12 -18 -6 -489 8 -661 9 -112 14 -401 14 -972 1 -583 5
-816 13 -824 15 -15 181 65 251 120 93 74 85 -31 84 1141 -1 569 -6 1057 -11
1083 -11 60 -31 82 -90 101 -58 18 -259 27 -269 12z"/>
<path d="M8348 7763 c-9 -2 -26 -27 -39 -56 -28 -66 -35 -174 -18 -292 9 -65
14 -316 18 -909 l6 -819 82 65 c156 123 256 228 290 303 16 37 17 77 14 537
-2 273 0 543 4 601 l7 105 77 11 c143 21 425 31 808 28 210 -1 385 1 388 5 9
9 55 409 49 420 -5 8 -1655 9 -1686 1z"/>
<path d="M5203 7568 c-134 -245 -243 -487 -274 -609 -11 -43 -14 -193 -14
-756 l0 -702 40 -41 c64 -67 304 -205 322 -186 12 12 9 2356 -3 2384 -8 20
-16 11 -71 -90z"/>
<path d="M5583 7628 c-4 -7 -9 -561 -10 -1231 l-2 -1219 72 -33 c73 -33 319
-125 336 -125 18 0 22 202 19 1035 l-3 850 -29 70 c-34 82 -254 481 -325 590
-34 52 -52 71 -58 63z"/>
<path d="M7180 7047 c-58 -51 -122 -118 -142 -148 -75 -109 -71 -49 -72 -971
-1 -454 3 -830 7 -834 7 -8 324 19 331 27 19 20 26 299 26 978 0 646 -3 789
-16 893 -9 67 -19 129 -23 135 -4 8 -42 -19 -111 -80z"/>
<path d="M4227 6592 c-3 -15 -13 -103 -23 -196 -14 -141 -15 -185 -5 -264 13
-106 15 -110 68 -174 75 -90 328 -283 338 -256 23 68 37 858 15 858 -6 0 -47
-29 -90 -64 -115 -94 -116 -95 -150 -54 -16 18 -53 65 -82 105 -29 40 -56 73
-59 73 -4 0 -9 -12 -12 -28z"/>
<path d="M6296 6484 c-3 -26 -6 -350 -6 -721 0 -710 0 -716 45 -753 13 -11 51
-16 142 -19 68 -1 135 0 148 3 l25 6 0 684 0 684 -86 -6 -86 -5 -87 87 -88 88
-7 -48z"/>
<path d="M4003 3363 c-51 -7 -103 -85 -202 -305 -133 -298 -341 -759 -385
-852 l-46 -99 -45 6 c-25 2 -47 6 -49 8 -2 2 -85 184 -186 404 -295 649 -344
740 -423 799 -27 20 -40 21 -233 20 -113 -1 -208 -4 -211 -8 -14 -13 121 -313
400 -891 74 -154 216 -453 316 -665 100 -212 225 -467 278 -568 94 -177 97
-182 116 -165 33 31 137 193 189 298 80 158 327 700 478 1045 75 173 185 419
244 547 98 214 176 402 176 424 0 9 -349 10 -417 2z"/>
<path d="M6639 3363 c-34 -4 -38 -7 -44 -41 -4 -20 -9 -476 -12 -1012 -4 -719
-2 -1021 8 -1149 l12 -174 111 7 c61 3 157 11 213 17 l102 12 5 51 c3 28 8
305 10 616 3 311 8 578 12 594 l7 29 19 -24 c127 -158 157 -208 299 -489 97
-193 195 -370 219 -394 10 -10 57 40 118 127 23 34 90 156 148 271 59 116 126
241 151 278 56 85 128 166 139 155 5 -5 8 -182 7 -395 -2 -364 10 -803 23
-837 5 -13 38 -15 219 -15 l213 0 7 123 c3 67 5 589 3 1159 -3 1036 -3 1037
-24 1065 l-21 28 -168 0 -168 0 -60 -100 c-89 -149 -226 -397 -387 -700 -78
-148 -147 -274 -152 -280 -24 -26 -172 216 -353 576 -90 179 -191 367 -224
417 l-61 92 -167 -2 c-93 -1 -184 -3 -204 -5z"/>
<path d="M9138 3363 c-33 -5 -56 -51 -68 -133 -4 -32 -7 -503 -5 -1046 3 -922
8 -1098 31 -1177 5 -16 22 -17 217 -15 l212 3 5 470 c4 392 7 475 20 500 l15
30 387 5 c212 3 389 8 392 11 3 3 9 95 12 206 6 166 5 201 -7 209 -8 5 -162
12 -344 15 l-330 5 300 3 c191 2 284 6 255 12 -25 4 -183 8 -351 8 l-306 1 -6
74 c-4 40 -4 146 0 235 l6 161 483 0 482 0 6 28 c15 68 25 186 26 290 l0 112
-702 -1 c-387 -1 -715 -4 -730 -6z"/>
<path d="M5205 3222 c-146 -259 -185 -332 -305 -572 -70 -140 -182 -374 -248
-520 -66 -146 -168 -368 -227 -495 -118 -253 -275 -596 -275 -601 0 -1 33 -8
73 -15 78 -14 312 -16 392 -2 l50 8 56 137 c70 171 114 246 159 273 33 19 54
20 335 23 165 2 342 1 394 -3 l93 -7 105 -216 104 -215 235 6 c130 4 239 9
244 12 9 6 -8 47 -143 330 -49 104 -134 285 -187 400 -279 602 -461 980 -578
1200 -73 138 -199 352 -211 360 -4 2 -34 -44 -66 -103z m87 -939 c63 -89 139
-248 173 -360 l6 -23 -195 0 c-162 0 -196 2 -196 14 0 51 155 416 176 416 1 0
17 -21 36 -47z"/>
<path d="M1650 2681 c-73 -23 -148 -80 -175 -131 -20 -39 -28 -112 -16 -157
27 -100 124 -174 229 -175 72 0 167 54 197 112 37 72 27 215 -21 277 -45 59
-150 95 -214 74z"/>
<path d="M11075 2674 c-46 -23 -105 -84 -126 -129 -22 -48 -25 -132 -5 -180
35 -82 157 -175 231 -175 62 1 169 70 201 131 53 103 35 211 -49 295 -56 56
-100 74 -177 74 -25 0 -58 -7 -75 -16z"/>
</g>
</svg>
